# xmcd CD database file
#
# Track frame offsets:
#	150
#	13034
#	25281
#	36235
#	47765
#	61899
#	74777
#	85833
#	97931
#	110239
#
# Disc length: 1614 seconds
#
# Revision: 0
# Processed by: cddbd v1.5.2PL0 Copyright (c) Steve Scherf et al.
# Submitted via: CDex 1.70beta2
#
DISCID=87064c0a
DTITLE=Grandpa Jones - Fifteen Cents Is All I've Got
DYEAR=1977
DGENRE=Country
TTITLE0=Fifteen Cents Is All I've Got
TTITLE1=Uncle Eph's Got the Coon
TTITLE2=That Memphis Train
TTITLE3=Jennie, Get Your Hoe Cakes Done
TTITLE4=The Feudin' Boogie
TTITLE5=Here Rattler Here
TTITLE6=The Bald Headed End of the Broom
TTITLE7=How Many Biscuits Can You Eat
TTITLE8=Old Rattler's Treed Again
TTITLE9=My Old Red River Home
EXTD=YEAR: 1977
EXTT0=
EXTT1=
EXTT2=
EXTT3=
EXTT4=
EXTT5=
EXTT6=
EXTT7=
EXTT8=
EXTT9=
PLAYORDER=
